<?xml version="1.0" standalone="no"?>
<!DOCTYPE svg PUBLIC "-//W3C//DTD SVG 20010904//EN"
 "http://www.w3.org/TR/2001/REC-SVG-20010904/DTD/svg10.dtd">
<svg version="1.0" xmlns="http://www.w3.org/2000/svg"
 width="171.000000pt" height="57.000000pt" viewBox="0 0 171.000000 57.000000"
 preserveAspectRatio="xMidYMid meet">

<g transform="translate(0.000000,57.000000) scale(0.100000,-0.100000)"
fill="#000000" stroke="none">
<path d="M202 448 c3 -29 7 -33 36 -36 29 -3 32 -6 32 -38 0 -32 2 -34 35 -34
33 0 35 -2 35 -35 0 -33 -2 -35 -35 -35 -33 0 -35 -2 -35 -34 0 -32 -3 -35
-32 -38 -29 -3 -33 -7 -36 -35 -3 -32 -2 -33 32 -33 34 0 36 2 36 35 0 34 1
35 40 35 39 0 40 1 40 35 0 33 2 35 35 35 33 0 35 2 35 35 0 33 -2 35 -35 35
-33 0 -35 2 -35 35 0 34 -1 35 -40 35 -39 0 -40 1 -40 35 0 33 -2 35 -36 35
-34 0 -35 -1 -32 -32z"/>
<path d="M451 454 c-45 -57 -6 -144 63 -144 20 0 66 39 66 56 0 19 -29 18 -36
-1 -8 -20 -60 -19 -68 1 -23 60 27 114 64 69 15 -19 40 -20 40 -2 0 24 -36 47
-73 47 -27 0 -41 -7 -56 -26z"/>
<path d="M733 443 c-8 -16 -9 -29 -4 -33 5 -3 11 -23 13 -45 3 -35 6 -40 31
-43 15 -2 27 1 27 7 0 6 -4 11 -10 11 -5 0 -10 16 -10 35 0 19 5 35 10 35 6 0
10 7 10 15 0 8 -4 15 -10 15 -5 0 -10 7 -10 15 0 25 -34 17 -47 -12z"/>
<path d="M614 423 c-17 -17 -17 -18 0 -21 9 -2 23 1 29 7 8 6 18 6 27 1 12 -7
11 -10 -5 -15 -52 -17 -65 -26 -65 -44 0 -27 27 -39 73 -34 37 5 37 5 37 52 0
26 -5 52 -12 59 -18 18 -64 15 -84 -5z m64 -65 c-5 -15 -48 -24 -48 -10 0 14
12 22 33 22 10 0 17 -5 15 -12z"/>
<path d="M824 423 c-17 -17 -17 -18 0 -21 9 -2 23 1 29 7 8 6 18 6 27 1 12 -7
11 -10 -5 -15 -52 -17 -65 -26 -65 -44 0 -27 27 -39 73 -34 37 5 37 5 37 52 0
26 -5 52 -12 59 -18 18 -64 15 -84 -5z m64 -65 c-5 -15 -48 -24 -48 -10 0 14
12 22 33 22 10 0 17 -5 15 -12z"/>
<path d="M945 432 c-3 -3 -5 -29 -5 -59 0 -46 3 -53 19 -53 16 0 20 8 23 43 2
29 8 42 18 42 10 0 16 -13 18 -42 4 -59 30 -59 34 -1 2 31 8 44 21 46 14 3 17
-4 17 -42 0 -40 3 -46 21 -46 20 0 21 4 17 50 -3 28 -8 54 -12 58 -9 8 -163
12 -171 4z"/>
<path d="M1164 426 c-25 -19 -11 -32 20 -18 23 10 36 7 36 -9 0 -4 -15 -10
-34 -13 -35 -7 -50 -25 -40 -50 8 -21 26 -25 73 -19 l41 6 0 48 c0 38 -4 51
-19 59 -27 14 -54 13 -77 -4z m56 -71 c0 -8 -9 -15 -20 -15 -20 0 -26 11 -13
23 12 13 33 7 33 -8z"/>
<path d="M1280 379 c0 -46 3 -59 15 -59 9 0 15 10 15 26 0 33 17 64 35 64 8 0
15 6 15 14 0 9 -13 13 -40 13 l-40 0 0 -58z"/>
<path d="M1380 420 c-41 -41 -16 -103 40 -103 38 0 75 35 43 42 -9 2 -19 -2
-21 -8 -11 -33 -54 6 -45 40 6 22 25 24 53 7 27 -17 37 -2 15 22 -23 26 -59
26 -85 0z"/>
<path d="M1504 423 c-17 -17 -17 -18 0 -21 9 -2 24 2 32 9 11 9 18 9 26 1 8
-8 6 -13 -8 -17 -51 -17 -64 -26 -64 -44 0 -27 27 -39 73 -34 37 5 37 5 37 52
0 26 -5 52 -12 59 -18 18 -64 15 -84 -5z m66 -62 c0 -6 -5 -13 -10 -16 -15 -9
-43 3 -35 15 8 13 45 13 45 1z"/>
<path d="M474 289 c-45 -23 -57 -90 -23 -133 16 -20 29 -26 58 -26 37 0 71 23
71 48 0 17 -25 15 -40 -3 -15 -18 -42 -19 -58 -3 -17 17 -15 64 4 82 19 20 29
20 48 1 16 -16 46 -20 46 -7 0 35 -67 61 -106 41z"/>
<path d="M870 280 c0 -5 9 -10 20 -10 11 0 20 5 20 10 0 6 -9 10 -20 10 -11 0
-20 -4 -20 -10z"/>
<path d="M1140 210 c0 -73 2 -80 20 -80 18 0 20 7 20 80 0 73 -2 80 -20 80
-18 0 -20 -7 -20 -80z"/>
<path d="M940 266 c0 -8 -6 -17 -12 -19 -10 -4 -10 -7 -1 -14 6 -5 13 -29 15
-53 3 -41 6 -45 31 -48 19 -2 27 1 27 12 0 9 -7 16 -15 16 -10 0 -15 10 -15
30 0 18 6 33 15 36 8 4 15 10 15 15 0 5 -7 9 -15 9 -8 0 -15 7 -15 15 0 8 -7
15 -15 15 -8 0 -15 -6 -15 -14z"/>
<path d="M612 238 c-18 -18 -15 -28 8 -28 11 0 20 5 20 10 0 13 27 13 35 0 6
-10 0 -14 -48 -25 -24 -5 -28 -10 -25 -33 3 -25 6 -27 56 -29 l52 -1 0 53 c0
39 -4 54 -16 59 -26 10 -69 7 -82 -6z m62 -73 c-7 -16 -30 -20 -38 -6 -7 11 4
21 25 21 12 0 16 -5 13 -15z"/>
<path d="M730 169 c0 -72 2 -79 20 -79 14 0 20 7 20 24 0 19 4 22 25 18 35 -6
55 14 55 58 0 48 -13 58 -73 58 l-47 0 0 -79z m90 21 c0 -22 -25 -44 -40 -35
-14 9 -13 62 3 68 17 6 37 -12 37 -33z"/>
<path d="M870 190 c0 -53 2 -60 20 -60 18 0 20 7 20 60 0 53 -2 60 -20 60 -18
0 -20 -7 -20 -60z"/>
<path d="M1020 235 c-17 -21 -4 -32 20 -17 26 16 40 15 40 -3 0 -9 -9 -15 -22
-15 -34 0 -50 -15 -46 -41 3 -22 8 -24 56 -26 l52 -1 0 47 c0 26 -5 52 -12 59
-17 17 -73 15 -88 -3z m60 -65 c0 -12 -28 -25 -36 -17 -9 9 6 27 22 27 8 0 14
-5 14 -10z"/>
<path d="M1200 145 c0 -8 5 -15 10 -15 6 0 10 7 10 15 0 8 -4 15 -10 15 -5 0
-10 -7 -10 -15z"/>
</g>
</svg>
