<svg height="64px" width="64px" version="1.1" id="Layer_1" xmlns="http://www.w3.org/2000/svg" xmlns:xlink="http://www.w3.org/1999/xlink" viewBox="-128 -128 768.00 768.00" xml:space="preserve" fill="#000000"><g id="SVGRepo_bgCarrier" stroke-width="0"></g><g id="SVGRepo_tracerCarrier" stroke-linecap="round" stroke-linejoin="round"></g><g id="SVGRepo_iconCarrier"> <path style="fill:#8DE0A8;" d="M434.881,225.778c8.462,9.997,13.587,22.926,13.587,37.056c0,31.688-25.685,57.374-57.374,57.374 c-5.01,0-9.87-0.646-14.511-1.859c0.439,2.563,0.681,5.195,0.681,7.885c0,25.524-20.698,46.222-46.222,46.222 c-14.395,0-27.267-6.58-35.74-16.912l-13.645,0.566l-68.006,2.805c-3.186,3.175-6.823,5.899-10.805,8.046 c-6.511,3.509-13.968,5.495-21.887,5.495c-25.524,0-46.222-20.698-46.222-46.222c0-2.69,0.242-5.322,0.681-7.885 c-4.629,1.212-9.501,1.859-14.511,1.859c-31.688,0-57.374-25.685-57.374-57.374c0-14.13,5.126-27.059,13.599-37.056 c-14.199-10.436-23.423-27.255-23.423-46.234c0-24.889,15.861-46.072,38.014-54.014c-3.602-7.504-5.61-15.908-5.61-24.773 c0-31.688,25.685-57.374,57.362-57.374c1.316,0,2.62,0.058,3.913,0.15c2.782-22.88,22.257-40.6,45.876-40.6 c11.059,0,21.195,3.879,29.149,10.355C231.199,5.056,243.008,0,256.007,0c12.987,0,24.797,5.056,33.582,13.287 c7.954-6.476,18.101-10.355,29.149-10.355c23.631,0,43.094,17.72,45.876,40.6c1.293-0.092,2.597-0.15,3.913-0.15 c31.688,0,57.374,25.685,57.374,57.374c0,8.866-2.02,17.27-5.622,24.773c22.165,7.942,38.014,29.126,38.014,54.014 C458.293,198.522,449.081,215.342,434.881,225.778z"></path> <g> <path style="fill:#7BC690;" d="M181.49,326.235c0-2.69,0.242-5.321,0.683-7.885c-4.637,1.21-9.501,1.857-14.517,1.857 c-31.684,0-57.368-25.684-57.368-57.368c0-14.131,5.12-27.061,13.592-37.06c-14.2-10.443-23.42-27.261-23.42-46.238 c0-24.891,15.856-46.071,38.014-54.012c-3.598-7.501-5.615-15.904-5.615-24.778c0-31.684,25.684-57.368,57.368-57.368 c1.318,0,2.622,0.06,3.918,0.148c1.773-14.614,10.365-27.117,22.495-34.249c-6.858-4.032-14.843-6.355-23.375-6.355 c-23.625,0-43.096,17.727-45.871,40.604c-1.296-0.088-2.6-0.148-3.918-0.148c-31.684,0-57.368,25.684-57.368,57.368 c0,8.875,2.017,17.278,5.615,24.778c-22.159,7.941-38.014,29.122-38.014,54.012c0,18.978,9.221,35.796,23.42,46.238 c-8.472,9.998-13.592,22.928-13.592,37.06c0,31.684,25.684,57.368,57.368,57.368c5.016,0,9.879-0.648,14.517-1.857 c-0.441,2.564-0.683,5.195-0.683,7.885c0,25.528,20.695,46.223,46.223,46.223c8.531,0,16.516-2.32,23.375-6.35 C190.671,358.077,181.49,343.231,181.49,326.235z"></path> <path style="fill:#7BC690;" d="M369.334,240.704l-64.381,64.381c-13.691,13.691-21.934,31.827-23.296,51.025l-68.006,2.805 c-3.186,3.175-6.823,5.899-10.805,8.046v-48.6c0-14.072-5.587-27.579-15.55-37.541l-45.455-61.568l13.778-14.011l74.304,68.419 l-3.257-56.962l54.782-27.861v92.11l78.737-80.373L369.334,240.704z"></path> </g> <path style="fill:#FCD577;" d="M383.187,240.704l-64.381,64.381c-15.042,15.042-23.504,35.452-23.504,56.727V512H216.7V318.361 c0-14.072-5.587-27.579-15.55-37.541l-66.413-66.413l13.287-13.299l10.528-10.528l58.147,58.147v-59.89h78.603v92.11l64.069-64.069 l8.785,8.785l0.439,0.45L383.187,240.704z"></path> <g> <path style="fill:#EAC36E;" d="M368.596,226.113l-61,61c-4.537,4.537-12.293,1.324-12.293-5.092v-1.074l64.069-64.069l8.785,8.785 L368.596,226.113z"></path> <path style="fill:#EAC36E;" d="M216.7,187.699v68.993c0,7.621-9.316,11.325-14.549,5.784l-54.126-57.325v-4.04l-13.287,13.299 l66.413,66.413c9.962,9.962,15.55,23.469,15.55,37.541v21.518v172.121h24.446V187.699H216.7z"></path> </g> <g> <path style="fill:#7BC690;" d="M304.15,171.06l-1.557,1.769c-0.522,0.577-1.126,1.089-1.661,1.637 c-1.037,1.131-2.345,1.994-3.461,2.985c-0.588,0.469-1.242,0.861-1.847,1.294c-0.612,0.427-1.212,0.857-1.884,1.19l-1.909,1.102 c-0.653,0.332-1.33,0.619-1.982,0.933c-5.258,2.488-10.931,3.454-16.491,3.385c-5.585-0.084-11.014-1.508-15.927-4.057 l-0.384-0.201c-2.572-1.326-5.767-1.253-8.344,0.468c-3.541,2.363-7.628,3.87-11.993,4.357c-1.094,0.134-2.195,0.094-3.312,0.173 l-1.663-0.089l-0.842-0.036l-0.828-0.126c-2.263-0.188-4.428-0.907-6.661-1.63c-1.057-0.477-2.19-0.877-3.208-1.491 c-0.518-0.291-1.099-0.517-1.59-0.862l-1.532-0.995c-1.98-1.421-3.96-3.026-5.646-4.979l-0.665-0.719 c-0.211-0.248-0.391-0.515-0.591-0.773l-1.231-1.569l-1.078-1.696l-0.562-0.863l-0.472-0.907l-0.978-1.856l-0.825-1.957 c-0.14-0.331-0.296-0.665-0.425-1.003l-0.339-1.031l-0.728-2.119c-0.179,0.72-0.357,1.455-0.51,2.201l-0.23,1.129 c-0.051,0.377-0.076,0.755-0.114,1.136c-0.076,0.764-0.12,1.535-0.172,2.319c0.002,0.773,0.038,1.552,0.081,2.338 c0.015,1.594,0.389,3.125,0.65,4.725c0.443,1.523,0.786,3.148,1.472,4.622c0.317,0.75,0.607,1.53,0.966,2.272l1.195,2.174 c0.383,0.747,0.879,1.411,1.347,2.107c0.486,0.679,0.927,1.415,1.495,2.032c2.121,2.632,4.672,4.954,7.521,6.938 c0.712,0.493,1.47,0.919,2.213,1.378c0.746,0.457,1.51,0.884,2.315,1.233l2.403,1.096l2.505,0.86l1.266,0.412l1.295,0.296 l2.612,0.564l2.654,0.298c0.889,0.1,1.78,0.185,2.676,0.187c5.498,0.126,11.091-1.019,16.2-3.28 c6.356,2.791,13.366,4.159,20.251,3.816c8.427-0.433,16.814-3.064,23.542-7.932c3.459-2.282,6.343-5.286,8.934-8.369 c1.206-1.636,2.422-3.233,3.369-5.008c0.485-0.876,1.026-1.705,1.423-2.622l1.175-2.729c0.42-0.883,0.679-1.846,0.962-2.783 c0.262-0.947,0.592-1.853,0.779-2.809c0.345-1.923,0.753-3.785,0.794-5.709c0.337-3.782-0.209-7.569-1.136-11.068 C311.29,160.205,308.285,166.229,304.15,171.06z"></path> <path style="fill:#7BC690;" d="M389.094,232.786c-5.324-1.324-9.563-3.834-13.011-7.229c-3.411-3.434-5.924-7.681-7.254-13.011 c-1.31-5.352-1.253-11.552,1.132-19.132c-3.84,1.181-7.195,3.801-9.775,7.161c-2.555,3.378-4.301,7.545-4.941,11.972 c-0.652,4.426-0.219,9.104,1.274,13.489c1.481,4.389,4.035,8.47,7.321,11.764c3.287,3.295,7.367,5.853,11.758,7.337 c4.387,1.495,9.067,1.937,13.496,1.283c4.429-0.64,8.601-2.386,11.98-4.945c3.359-2.586,5.979-5.947,7.152-9.795 C400.631,234.048,394.44,234.093,389.094,232.786z"></path> <path style="fill:#7BC690;" d="M147.838,168.899c0.717,3.435,1.189,6.313,1.314,9.026c0.006,0.687,0.077,1.321,0.06,1.972 c-0.044,0.661-0.031,1.279-0.048,1.892c-0.135,1.253-0.187,2.414-0.398,3.558c-0.362,2.271-0.891,4.356-1.556,6.318 c-0.71,1.954-1.567,3.76-2.552,5.489c-0.459,0.888-1.063,1.683-1.59,2.548c-0.635,0.785-1.204,1.642-1.884,2.433 c-1.336,1.597-2.863,3.076-4.625,4.547c-1.772,1.455-3.812,2.817-6.208,4.084c-2.408,1.284-5.13,2.328-8.448,3.454 c1.19,1.271,2.593,2.34,4.128,3.143c1.532,0.862,3.194,1.437,4.93,1.891c1.732,0.379,3.547,0.646,5.373,0.612 c1.838,0.03,3.685-0.207,5.511-0.618c7.328-1.673,14.048-6.668,17.834-13.487c1.926-3.378,3.178-7.139,3.631-10.958 c0.416-3.826,0.048-7.688-1.078-11.247C160.044,176.44,154.57,170.532,147.838,168.899z"></path> </g> <ellipse style="fill:#415E72;" cx="251.268" cy="396.779" rx="18.181" ry="41.556"></ellipse> </g></svg>