<?xml version="1.0" standalone="no"?>
<!DOCTYPE svg PUBLIC "-//W3C//DTD SVG 20010904//EN"
 "http://www.w3.org/TR/2001/REC-SVG-20010904/DTD/svg10.dtd">
<svg version="1.0" xmlns="http://www.w3.org/2000/svg"
 width="276.000000pt" height="182.000000pt" viewBox="0 0 276.000000 182.000000"
 preserveAspectRatio="xMidYMid meet">

<g transform="translate(0.000000,182.000000) scale(0.100000,-0.100000)"
fill="#000000" stroke="none">
<path d="M1123 1128 c-82 -46 -182 -113 -182 -123 0 -5 5 -18 12 -27 12 -15
22 -10 111 47 113 74 148 85 211 60 121 -45 148 -187 54 -277 -42 -40 -87 -54
-147 -45 -39 6 -79 -13 -68 -32 10 -15 102 -31 138 -24 152 29 229 179 164
319 -51 109 -192 158 -293 102z"/>
<path d="M1495 1087 c-36 -55 18 -117 70 -83 15 10 24 20 22 23 -3 3 -16 -2
-28 -11 -32 -22 -61 -4 -57 36 4 40 30 58 59 40 18 -11 20 -11 17 0 -3 7 -19
14 -36 16 -24 2 -34 -2 -47 -21z"/>
<path d="M1950 1091 c0 -14 -5 -18 -18 -14 -25 6 -46 -21 -38 -51 7 -27 25
-37 55 -29 18 5 21 13 21 59 0 30 -4 54 -10 54 -5 0 -10 -9 -10 -19z m-5 -55
c0 -35 -20 -45 -34 -17 -14 25 -3 53 18 49 10 -2 16 -13 16 -32z"/>
<path d="M1617 1073 c-3 -5 6 -9 21 -8 20 0 27 -5 27 -20 0 -25 -13 -45 -31
-45 -20 0 -17 28 4 33 13 4 12 5 -4 6 -12 0 -24 -5 -27 -13 -9 -22 17 -38 48
-30 23 6 26 11 23 43 -3 31 -7 36 -30 39 -14 2 -28 -1 -31 -5z"/>
<path d="M1698 1020 c-2 -40 1 -61 9 -64 7 -3 15 0 19 6 4 6 3 8 -3 5 -5 -4
-8 17 -5 54 3 37 0 59 -6 59 -6 0 -12 -27 -14 -60z"/>
<path d="M1746 1071 c-4 -6 5 -9 20 -8 20 2 27 -3 30 -19 4 -24 -19 -49 -36
-39 -15 10 -12 23 8 28 16 4 16 5 -1 6 -21 1 -34 -26 -20 -40 6 -6 22 -7 37
-3 24 6 27 11 24 43 -3 31 -7 36 -30 39 -14 2 -29 -1 -32 -7z"/>
<path d="M2000 1060 c-14 -27 -4 -57 21 -65 19 -6 55 12 44 23 -2 3 -11 -1
-19 -7 -8 -7 -20 -10 -26 -6 -20 12 -10 25 20 25 31 0 39 17 18 38 -18 18 -46
14 -58 -8z m58 -7 c2 -8 -6 -13 -22 -13 -25 0 -33 10 -19 24 10 10 36 3 41
-11z"/>
<path d="M1495 947 c-36 -55 18 -117 70 -83 15 10 24 20 21 23 -3 4 -15 -2
-25 -11 -29 -26 -63 -5 -59 36 4 40 30 58 59 40 18 -11 20 -11 17 0 -3 7 -19
14 -36 16 -24 2 -34 -2 -47 -21z"/>
<path d="M1850 952 c0 -13 -8 -18 -27 -17 -23 0 -29 -5 -31 -29 -4 -34 10 -51
43 -51 24 -1 25 2 25 57 0 32 -2 58 -5 58 -3 0 -5 -8 -5 -18z m-2 -48 c3 -23
-21 -49 -38 -39 -11 7 -14 48 -3 59 13 13 38 1 41 -20z"/>
<path d="M1938 949 c-7 -20 6 -92 17 -96 8 -2 11 41 6 100 -1 11 -19 8 -23 -4z"/>
<path d="M1622 890 c1 -40 2 -41 5 -10 2 19 11 40 20 47 13 10 13 12 -6 10
-18 -1 -21 -7 -19 -47z"/>
<path d="M1690 920 c-24 -45 25 -90 59 -55 15 16 15 17 -7 6 -23 -12 -42 -8
-42 10 0 5 14 9 30 9 31 0 39 17 18 38 -18 18 -46 14 -58 -8z m58 -7 c2 -8 -6
-13 -22 -13 -25 0 -33 10 -19 24 10 10 36 3 41 -11z"/>
<path d="M1890 900 c0 -22 5 -40 10 -40 6 0 10 18 10 40 0 22 -4 40 -10 40 -5
0 -10 -18 -10 -40z"/>
<path d="M2002 928 c-34 -34 6 -90 48 -68 35 19 20 80 -20 80 -9 0 -21 -5 -28
-12z m53 -19 c10 -30 -18 -57 -39 -39 -19 15 -20 32 -4 48 18 18 36 14 43 -9z"/>
<path d="M1491 773 c1 -65 5 -61 12 10 2 26 1 47 -4 47 -5 0 -9 -26 -8 -57z"/>
<path d="M1588 823 c-2 -5 -1 -30 3 -58 l6 -50 1 58 c2 52 -2 69 -10 50z"/>
<path d="M1510 795 c0 -5 5 -17 10 -25 5 -8 10 -10 10 -5 0 6 -5 17 -10 25 -5
8 -10 11 -10 5z"/>
<path d="M1566 785 c-9 -26 -7 -32 5 -12 6 10 9 21 6 23 -2 3 -7 -2 -11 -11z"/>
<path d="M1620 766 c0 -19 3 -37 8 -40 4 -2 6 13 4 35 -5 48 -12 51 -12 5z"/>
<path d="M1703 760 c0 -25 2 -35 4 -22 2 12 2 32 0 45 -2 12 -4 2 -4 -23z"/>
<path d="M1745 790 c3 -5 8 -10 11 -10 2 0 4 5 4 10 0 6 -5 10 -11 10 -5 0 -7
-4 -4 -10z"/>
<path d="M1783 760 c0 -25 2 -35 4 -22 2 12 2 32 0 45 -2 12 -4 2 -4 -23z"/>
<path d="M1883 760 c0 -25 2 -35 4 -22 2 12 2 32 0 45 -2 12 -4 2 -4 -23z"/>
<path d="M1911 784 c0 -11 3 -14 6 -6 3 7 2 16 -1 19 -3 4 -6 -2 -5 -13z"/>
<path d="M2036 786 c3 -8 -2 -16 -13 -19 -15 -4 -15 -5 -1 -6 9 0 19 -11 21
-23 3 -15 5 -9 6 14 0 20 -3 40 -9 43 -5 3 -7 0 -4 -9z"/>
<path d="M1972 760 c0 -14 2 -19 5 -12 2 6 2 18 0 25 -3 6 -5 1 -5 -13z"/>
<path d="M1801 759 c-1 -9 7 -23 17 -30 15 -12 16 -12 6 1 -6 8 -14 22 -17 30
-5 13 -6 12 -6 -1z"/>
<path d="M1911 723 c0 -29 2 -33 8 -18 7 18 4 55 -5 55 -2 0 -4 -17 -3 -37z"/>
<path d="M1530 741 c0 -6 4 -13 10 -16 6 -3 7 1 4 9 -7 18 -14 21 -14 7z"/>
<path d="M1665 730 c-3 -5 -1 -10 4 -10 6 0 11 5 11 10 0 6 -2 10 -4 10 -3 0
-8 -4 -11 -10z"/>
</g>
</svg>
