<svg height="64px" width="64px" version="1.1" id="Layer_1" xmlns="http://www.w3.org/2000/svg" xmlns:xlink="http://www.w3.org/1999/xlink" viewBox="-128 -128 767.98 767.98" xml:space="preserve" fill="#000000"><g id="SVGRepo_bgCarrier" stroke-width="0"></g><g id="SVGRepo_tracerCarrier" stroke-linecap="round" stroke-linejoin="round"></g><g id="SVGRepo_iconCarrier"> <path style="fill:#CCD1D9;" d="M478.641,213.325V191.99h-63.014l7.766-51.749l-21.094-3.164l-8.25,54.913h-74.06v-51.335h-21.343 v51.335h-71.864l-8.242-54.913l-21.093,3.164l7.757,51.749h-64.873v21.335h68.076l8,53.327h-57.553v21.335h60.756l9.836,65.592 l21.093-3.188l-9.359-62.404h57.468v61.998h21.343v-61.998h59.67l-9.358,62.404l21.092,3.188l9.844-65.592h54.748v-21.335h-51.561 l8-53.327L478.641,213.325L478.641,213.325z M237.976,266.652l-7.999-53.327h68.67v53.327H237.976z M382.863,266.652H319.99v-53.327 h70.872L382.863,266.652z"></path> <path style="fill:#E6E9ED;" d="M447.986,383.984H181.33c-5.883,0-10.672-4.781-10.672-10.656c0-5.891,4.789-10.688,10.672-10.688 h266.656l63.998-234.648H128.84l-18.18-66.803l-0.008,0.008c-1.125-4.141-4.664-7.273-9.023-7.789V53.4l-89.7-10.664l-0.008,0.008 c-0.414-0.055-0.828-0.086-1.258-0.086C4.772,42.658,0,47.439,0,53.33c0,5.461,4.108,9.96,9.405,10.585l0,0l82.561,9.82 l14.764,54.257h-0.07l59.265,217.274c-9.891,5.438-16.594,15.968-16.594,28.062c0,17.656,14.328,32,31.999,32h266.656 c5.891,0,10.655-4.781,10.655-10.688C458.641,388.765,453.877,383.984,447.986,383.984z M484.048,149.327l-52.357,192.002H186.955 L134.59,149.327H484.048z"></path> <path style="fill:#434A54;" d="M383.988,383.984c-23.562,0-42.655,19.094-42.655,42.655c0,23.577,19.094,42.687,42.655,42.687 s42.655-19.109,42.655-42.687C426.643,403.078,407.55,383.984,383.988,383.984z"></path> <path style="fill:#F5F7FA;" d="M394.643,426.639c0,5.905-4.766,10.687-10.655,10.687c-5.891,0-10.656-4.781-10.656-10.687 c0-5.875,4.766-10.656,10.656-10.656C389.878,415.983,394.643,420.764,394.643,426.639z"></path> <path style="fill:#434A54;" d="M213.329,383.984c-23.569,0-42.671,19.094-42.671,42.655c0,23.577,19.102,42.687,42.671,42.687 c23.562,0,42.663-19.109,42.663-42.687C255.992,403.078,236.89,383.984,213.329,383.984z"></path> <path style="fill:#F5F7FA;" d="M223.993,426.639c0,5.905-4.773,10.687-10.664,10.687c-5.891,0-10.672-4.781-10.672-10.687 c0-5.875,4.781-10.656,10.672-10.656S223.993,420.764,223.993,426.639z"></path> </g></svg>