<svg xmlns="http://www.w3.org/2000/svg" xmlns:xlink="http://www.w3.org/1999/xlink" version="1.1" id="Capa_1" viewBox="-113.81 -113.81 682.87 682.87" xml:space="preserve" width="64px" height="64px" fill="#000000"><g id="SVGRepo_bgCarrier" stroke-width="0"></g><g id="SVGRepo_tracerCarrier" stroke-linecap="round" stroke-linejoin="round"></g><g id="SVGRepo_iconCarrier"> <g> <path style="fill:#FFD764;" d="M349.123,372.25l-50,71.55c0,0,63.34,11.14,79.83,11.2c16.54,0,30.17-13.66,30.17-30.2v-52.55 H349.123z"></path> <path style="fill:#FFD764;" d="M409.123,29.45V82h-60l-50-72.05c0,0,63.34-9.89,79.83-9.95C395.493,0,409.123,12.91,409.123,29.45z "></path> <path style="fill:#FFE29E;" d="M348.952,0.005h30c-16.49,0.06-29.83,13.45-29.83,29.95v242.67l-15,15l15,15v122.17 c0,16.5,13.34,30.14,29.83,30.21l-30,0.02c-16.49-0.09-49.83-20.23-49.83-20.23V29.955C299.122,29.955,332.462,0.065,348.952,0.005 z"></path> <path style="fill:#FFF1CF;" d="M348.952,455.005c0,0.02-272.93,0.24-272.93,0.24c-16.54,0-29.9-13.91-29.9-30.45v-30l15-15l-15-15 v-182.17l15-15l-15-15V29.455c0-16.54,13.36-29.45,29.9-29.45h272.93c-16.49,0.06-29.83,13.45-29.83,29.95v394.84 C319.122,441.295,332.462,454.935,348.952,455.005z"></path> <path style="fill:#CC8073;" d="M267.622,115.125h-140c-4.143,0-7.5-3.358-7.5-7.5s3.357-7.5,7.5-7.5h140c4.143,0,7.5,3.358,7.5,7.5 S271.765,115.125,267.622,115.125z"></path> <path style="fill:#CC8073;" d="M237.622,145.125h-110c-4.143,0-7.5-3.358-7.5-7.5s3.357-7.5,7.5-7.5h110c4.143,0,7.5,3.358,7.5,7.5 S241.765,145.125,237.622,145.125z"></path> <path style="fill:#CC8073;" d="M267.622,205.125h-140c-4.143,0-7.5-3.358-7.5-7.5s3.357-7.5,7.5-7.5h140c4.143,0,7.5,3.358,7.5,7.5 S271.765,205.125,267.622,205.125z"></path> <path style="fill:#CC8073;" d="M267.622,235.125h-80c-4.143,0-7.5-3.358-7.5-7.5s3.357-7.5,7.5-7.5h80c4.143,0,7.5,3.358,7.5,7.5 S271.765,235.125,267.622,235.125z"></path> <path style="fill:#CC8073;" d="M157.622,235.125h-30c-4.143,0-7.5-3.358-7.5-7.5s3.357-7.5,7.5-7.5h30c4.143,0,7.5,3.358,7.5,7.5 S161.765,235.125,157.622,235.125z"></path> <path style="fill:#CC8073;" d="M237.622,265.125h-120c-4.143,0-7.5-3.358-7.5-7.5s3.357-7.5,7.5-7.5h120c4.143,0,7.5,3.358,7.5,7.5 S241.765,265.125,237.622,265.125z"></path> <path style="fill:#CC8073;" d="M267.622,325.125h-40c-4.143,0-7.5-3.358-7.5-7.5s3.357-7.5,7.5-7.5h40c4.143,0,7.5,3.358,7.5,7.5 S271.765,325.125,267.622,325.125z"></path> <path style="fill:#CC8073;" d="M197.622,325.125h-70c-4.143,0-7.5-3.358-7.5-7.5s3.357-7.5,7.5-7.5h70c4.143,0,7.5,3.358,7.5,7.5 S201.765,325.125,197.622,325.125z"></path> <path style="fill:#CC8073;" d="M267.622,355.125h-90c-4.143,0-7.5-3.358-7.5-7.5s3.357-7.5,7.5-7.5h90c4.143,0,7.5,3.358,7.5,7.5 S271.765,355.125,267.622,355.125z"></path> <path style="fill:#CC8073;" d="M147.622,355.125h-20c-4.143,0-7.5-3.358-7.5-7.5s3.357-7.5,7.5-7.5h20c4.143,0,7.5,3.358,7.5,7.5 S151.765,355.125,147.622,355.125z"></path> <path style="fill:#CC8073;" d="M237.622,385.125h-110c-4.143,0-7.5-3.358-7.5-7.5s3.357-7.5,7.5-7.5h110c4.143,0,7.5,3.358,7.5,7.5 S241.765,385.125,237.622,385.125z"></path> <path style="fill:#CC8073;" d="M267.622,85.125h-20c-4.143,0-7.5-3.358-7.5-7.5s3.357-7.5,7.5-7.5h20c4.143,0,7.5,3.358,7.5,7.5 S271.765,85.125,267.622,85.125z"></path> <path style="fill:#CC8073;" d="M217.622,85.125h-90c-4.143,0-7.5-3.358-7.5-7.5s3.357-7.5,7.5-7.5h90c4.143,0,7.5,3.358,7.5,7.5 S221.765,85.125,217.622,85.125z"></path> </g> </g></svg>