<svg height="64px" width="64px" version="1.1" id="Layer_1" xmlns="http://www.w3.org/2000/svg" xmlns:xlink="http://www.w3.org/1999/xlink" viewBox="-128 -128 768.00 768.00" xml:space="preserve" fill="#000000"><g id="SVGRepo_bgCarrier" stroke-width="0"></g><g id="SVGRepo_tracerCarrier" stroke-linecap="round" stroke-linejoin="round"></g><g id="SVGRepo_iconCarrier"> <path style="fill:#D7EBFF;" d="M406.261,133.565c-0.304,0-0.609,0-0.924,0.006C397.01,58.538,333.217,0,256,0 S114.99,58.538,106.663,133.571c-0.315-0.006-0.62-0.006-0.924-0.006c-55.239,0-100.174,44.94-100.174,100.174 S50.5,333.913,105.739,333.913h300.522c55.239,0,100.174-44.94,100.174-100.174S461.5,133.565,406.261,133.565z"></path> <path style="fill:#BDDEFF;" d="M406.261,333.913c55.239,0,100.174-44.94,100.174-100.174S461.5,133.565,406.261,133.565 c-0.304,0-0.609,0-0.924,0.006C397.01,58.538,333.217,0,256,0v333.913H406.261z"></path> <path style="fill:#FFFFFF;" d="M189.293,163.859c-0.26,0-0.522-0.006-0.782-0.017c-9.206-0.424-16.326-8.239-15.902-17.446 c2.055-44.646,38.685-79.614,83.391-79.614c9.217,0,16.696,7.473,16.696,16.696s-7.479,16.696-16.696,16.696 c-26.827,0-48.805,20.979-50.044,47.755C205.544,156.88,198.163,163.859,189.293,163.859z"></path> <path style="fill:#3AACE6;" d="M167.63,366.631c-6.521-6.521-17.087-6.521-23.609,0l-44.522,44.522 c-6.521,6.516-6.521,17.092,0,23.609c6.521,6.521,17.087,6.521,23.609,0l16.022-16.022v76.565c0,9.223,7.479,16.696,16.696,16.696 s16.696-7.473,16.696-16.696v-76.565l16.022,16.022c6.522,6.522,17.086,6.522,23.609,0c6.521-6.516,6.521-17.092,0-23.609 L167.63,366.631z"></path> <path style="fill:#7FB335;" d="M388.892,438.979L372.87,455v-71c0-9.223-7.479-16.696-16.696-16.696 c-9.217,0-16.696,7.473-16.696,16.696v71l-16.022-16.022c-6.521-6.521-17.087-6.521-23.609,0c-6.521,6.516-6.521,17.092,0,23.609 l44.522,44.522c3.261,3.261,7.533,4.892,11.804,4.892s8.544-1.631,11.804-4.892l44.522-44.522c6.521-6.516,6.521-17.092,0-23.609 C405.978,432.456,395.413,432.456,388.892,438.979z"></path> <path style="fill:#E6F2FF;" d="M272.696,83.478c0-9.223-7.479-16.696-16.696-16.696v33.391 C265.217,100.174,272.696,92.701,272.696,83.478z"></path> </g></svg>