<svg height="64px" width="64px" version="1.1" id="Layer_1" xmlns="http://www.w3.org/2000/svg" xmlns:xlink="http://www.w3.org/1999/xlink" viewBox="-128 -128 768.00 768.00" xml:space="preserve" fill="#000000"><g id="SVGRepo_bgCarrier" stroke-width="0"></g><g id="SVGRepo_tracerCarrier" stroke-linecap="round" stroke-linejoin="round"></g><g id="SVGRepo_iconCarrier"> <polygon style="fill:#CAD4DB;" points="17.067,465.066 494.933,465.066 494.933,430.932 17.067,430.932 "></polygon> <polygon style="fill:#E6EEF4;" points="42.667,430.932 469.333,430.932 469.333,396.799 42.667,396.799 "></polygon> <g> <polygon style="fill:#CAD4DB;" points="238.933,396.799 273.067,396.799 273.067,191.999 238.933,191.999 "></polygon> <polygon style="fill:#CAD4DB;" points="324.267,396.799 358.4,396.799 358.4,191.999 324.267,191.999 "></polygon> <polygon style="fill:#CAD4DB;" points="409.6,396.799 443.733,396.799 443.733,191.999 409.6,191.999 "></polygon> <polygon style="fill:#CAD4DB;" points="153.6,396.799 187.733,396.799 187.733,191.999 153.6,191.999 "></polygon> <polygon style="fill:#CAD4DB;" points="68.267,396.799 102.4,396.799 102.4,191.999 68.267,191.999 "></polygon> </g> <polygon style="fill:#E6EEF4;" points="42.667,191.999 469.333,191.999 469.333,157.867 42.667,157.867 "></polygon> <polygon style="fill:#CAD4DB;" points="256,38.399 8.533,157.867 494.933,157.867 "></polygon> <path style="fill:#E6EEF4;" d="M503.467,473.599H8.533c-5.12,0-8.533-3.413-8.533-8.533s3.413-8.533,8.533-8.533h494.933 c5.12,0,8.533,3.413,8.533,8.533C512,470.186,508.587,473.599,503.467,473.599"></path> </g></svg>