<svg height="64px" width="64px" version="1.1" id="Layer_1" xmlns="http://www.w3.org/2000/svg" xmlns:xlink="http://www.w3.org/1999/xlink" viewBox="-128 -128 768.00 768.00" xml:space="preserve" fill="#000000"><g id="SVGRepo_bgCarrier" stroke-width="0"></g><g id="SVGRepo_tracerCarrier" stroke-linecap="round" stroke-linejoin="round"></g><g id="SVGRepo_iconCarrier"> <path style="fill:#81E3E2;" d="M378.273,0.001v267.453C452.125,267.454,512,207.59,512,133.727 C512,59.876,452.125,0.001,378.273,0.001z"></path> <path style="fill:#ABECEC;" d="M378.273,0.001c54.993,0,99.584,59.875,99.584,133.727c0,73.863-44.591,133.727-99.584,133.727 c-26.7,0-51.556-7.819-72.429-21.294l-68.001,27.997l27.997-68.001c-13.475-20.873-21.294-45.729-21.294-72.429 C244.547,59.876,304.411,0.001,378.273,0.001z"></path> <path style="fill:#FE834D;" d="M453.225,420.255l-21.294-21.294l-56.332,56.332l69.33,21.045c2.793-2.455,5.553-5.054,8.297-7.798 C466.503,455.262,466.503,433.533,453.225,420.255z"></path> <path style="fill:#FEA680;" d="M429.083,444.398c-2.744,2.744-5.497,5.351-8.265,7.83l-83.031-18.65l-18.65-83.031l8.048-8.048 c13.278-13.278,35.007-13.278,48.285,0l56.462,56.462C443.64,410.67,442.361,431.119,429.083,444.398z"></path> <path style="fill:#FE5F1A;" d="M420.818,452.228L136.23,383.863c94.398,93.513,211.578,178.503,308.697,92.475L420.818,452.228z"></path> <path style="fill:#FEA680;" d="M169.499,136.529l-24.142-24.142l-59.809,59.809l75.904,20.666l8.047-8.048 C182.779,171.536,182.779,149.807,169.499,136.529z"></path> <path style="fill:#FFC1A6;" d="M145.357,160.672l-8.048,8.048l-83.015-18.634L35.66,67.071c2.455-2.793,5.054-5.553,7.798-8.297 c13.278-13.278,35.007-13.278,48.285,0l53.612,53.612C158.635,125.665,158.635,147.394,145.357,160.672z"></path> <path style="fill:#FE834D;" d="M319.137,350.547l101.681,101.681c-96.281,86.511-201.334,13.89-284.586-68.364 c-1.36-1.344-2.712-2.696-4.056-4.04C37.093,284.742-51.599,165.582,35.66,67.071l125.792,125.792l-34.178,34.178l157.685,157.685 L319.137,350.547z"></path> </g></svg>