<svg version="1.1" id="Layer_1" xmlns="http://www.w3.org/2000/svg" xmlns:xlink="http://www.w3.org/1999/xlink" viewBox="-116 -116 696.00 696.00" xml:space="preserve" width="64px" height="64px" fill="#000000"><g id="SVGRepo_bgCarrier" stroke-width="0"></g><g id="SVGRepo_tracerCarrier" stroke-linecap="round" stroke-linejoin="round"></g><g id="SVGRepo_iconCarrier"> <g> <path style="fill:#AD3C2B;" d="M304,464L304,464c-8.84,0-16-7.16-16-16v-16h32v16C320,456.84,312.84,464,304,464z"></path> <path style="fill:#AD3C2B;" d="M432,464L432,464c-8.84,0-16-7.16-16-16v-16h32v16C448,456.84,440.84,464,432,464z"></path> </g> <path style="fill:#FCB641;" d="M448,432H288c-8.84,0-16-7.16-16-16V256c0-26.512,21.488-48,48-48h96c26.512,0,48,21.488,48,48v160 C464,424.84,456.84,432,448,432z"></path> <path style="fill:#FDC567;" d="M416,208h-96c-25.584,0-46.432,20.032-47.864,45.264C280.752,240.44,295.392,232,312,232h96 c26.512,0,48,21.488,48,48v149.784c4.76-2.768,8-7.872,8-13.784V256C464,229.488,442.512,208,416,208z"></path> <path style="fill:#E65039;" d="M424,208H320v-16c0-8.84,7.16-16,16-16h72c8.84,0,16,7.16,16,16V208z"></path> <g> <path style="fill:#BD8931;" d="M312,400c-4.416,0-8-3.576-8-8V256c0-4.424,3.584-8,8-8s8,3.576,8,8v136 C320,396.424,316.416,400,312,400z"></path> <path style="fill:#BD8931;" d="M368,400c-4.416,0-8-3.576-8-8V256c0-4.424,3.584-8,8-8s8,3.576,8,8v136 C376,396.424,372.416,400,368,400z"></path> <path style="fill:#BD8931;" d="M424,400c-4.416,0-8-3.576-8-8V256c0-4.424,3.584-8,8-8s8,3.576,8,8v136 C432,396.424,428.416,400,424,400z"></path> </g> <g> <path style="fill:#1C77C3;" d="M48,464L48,464c-8.84,0-16-7.16-16-16v-16h32v16C64,456.84,56.84,464,48,464z"></path> <path style="fill:#1C77C3;" d="M184,464L184,464c-8.84,0-16-7.16-16-16v-16h32v16C200,456.84,192.84,464,184,464z"></path> </g> <path style="fill:#E65039;" d="M200,432H32c-17.672,0-32-14.328-32-32V176c0-17.672,14.328-32,32-32h168c17.672,0,32,14.328,32,32 v224C232,417.672,217.672,432,200,432z"></path> <path style="fill:#EB7361;" d="M200,144H32c-17.672,0-32,14.328-32,32v3.04C5.864,172.328,14.384,168,24,168h168 c17.672,0,32,14.328,32,32v220.96c4.92-5.624,8-12.904,8-20.96V176C232,158.328,217.672,144,200,144z"></path> <g> <rect x="64" y="56" style="fill:#1C77C3;" width="24" height="88"></rect> <rect x="152" y="56" style="fill:#1C77C3;" width="24" height="88"></rect> </g> <path style="fill:#4992CF;" d="M200,56H40V40c0-8.84,7.16-16,16-16h128c8.84,0,16,7.16,16,16V56z"></path> <path style="fill:#E65039;" d="M144,24H96v-8c0-8.84,7.16-16,16-16h16c8.84,0,16,7.16,16,16V24z"></path> <polygon style="fill:#FDC567;" points="80,264 32,264 32,192 48,176 64,176 80,192 "></polygon> <path style="fill:#FCB641;" d="M56,200c-4.416,0-8-3.576-8-8v-48c0-4.424,3.584-8,8-8s8,3.576,8,8v48C64,196.424,60.416,200,56,200z "></path> <path style="fill:#EB7361;" d="M248,184h-16c-4.416,0-8-3.576-8-8s3.584-8,8-8h16c4.416,0,8,3.576,8,8S252.416,184,248,184z"></path> <g> <path style="fill:#AD3C2B;" d="M200,200h-56c-4.416,0-8-3.576-8-8s3.584-8,8-8h56c4.416,0,8,3.576,8,8S204.416,200,200,200z"></path> <path style="fill:#AD3C2B;" d="M152,232h-24c-4.416,0-8-3.576-8-8s3.584-8,8-8h24c4.416,0,8,3.576,8,8S156.416,232,152,232z"></path> <path style="fill:#AD3C2B;" d="M200,232h-16c-4.416,0-8-3.576-8-8s3.584-8,8-8h16c4.416,0,8,3.576,8,8S204.416,232,200,232z"></path> </g> <path style="fill:#1C77C3;" d="M128,400H80v-32c0-8.84,7.16-16,16-16h32V400z"></path> <path style="fill:#FCB641;" d="M144,400h-16v-48h32v32C160,392.84,152.84,400,144,400z"></path> </g></svg>