<svg height="64px" width="64px" version="1.1" id="Layer_1" xmlns="http://www.w3.org/2000/svg" xmlns:xlink="http://www.w3.org/1999/xlink" viewBox="-128 -128 768.00 768.00" xml:space="preserve" fill="#000000"><g id="SVGRepo_bgCarrier" stroke-width="0"></g><g id="SVGRepo_tracerCarrier" stroke-linecap="round" stroke-linejoin="round"></g><g id="SVGRepo_iconCarrier"> <path style="fill:#38454F;" d="M134.49,52.097l-40.2-40.3c-6.1-6-13.9-10.4-22.4-11.5c-22.4-2.8-41.5,14.6-41.5,36.5v15.2v138.8 c0,9.6,7.8,17.4,17.4,17.4h156.2h138.8c9.6,0,17.4-7.8,17.4-17.4v-121.4c0-9.6-7.8-17.4-17.4-17.4h-208.3V52.097z"></path> <g> <path style="fill:#172126;" d="M56.39,34.697c0-4.8,3.9-8.7,8.7-8.7s8.7,3.9,8.7,8.7s-3.9,8.7-8.7,8.7S56.39,39.497,56.39,34.697"></path> <path style="fill:#172126;" d="M308.09,164.897c0-4.8,3.9-8.7,8.7-8.7s8.7,3.9,8.7,8.7s-3.9,8.7-8.7,8.7 S308.09,169.697,308.09,164.897"></path> <path style="fill:#172126;" d="M308.09,130.197c0-4.8,3.9-8.7,8.7-8.7s8.7,3.9,8.7,8.7c0,4.8-3.9,8.7-8.7,8.7 S308.09,134.997,308.09,130.197"></path> <path style="fill:#172126;" d="M308.09,95.497c0-4.8,3.9-8.7,8.7-8.7s8.7,3.9,8.7,8.7s-3.9,8.7-8.7,8.7 S308.09,100.197,308.09,95.497"></path> </g> <g> <path style="fill:#B0B6BB;" d="M21.69,511.997c-1.3,0-2.7-0.3-4-1c-4.3-2.2-5.9-7.4-3.7-11.7l121.5-234.3c2.2-4.3,7.5-5.9,11.7-3.7 c4.3,2.2,5.9,7.4,3.7,11.7l-121.5,234.3C27.89,510.297,24.79,511.997,21.69,511.997"></path> <path style="fill:#B0B6BB;" d="M386.19,511.997c-3.1,0-6.2-1.7-7.7-4.7l-121.5-234.3c-2.2-4.3-0.5-9.5,3.7-11.7s9.5-0.6,11.7,3.7 l121.5,234.3c2.2,4.3,0.5,9.5-3.7,11.7C388.89,511.697,387.49,511.997,386.19,511.997"></path> <path style="fill:#B0B6BB;" d="M203.89,511.997c-4.8,0-8.7-3.9-8.7-8.7v-260.3c0-4.8,3.9-8.7,8.7-8.7s8.7,3.9,8.7,8.7v260.3 C212.59,508.097,208.69,511.997,203.89,511.997"></path> </g> <polygon style="fill:#38454F;" points="264.69,268.997 203.89,242.997 143.19,268.997 160.49,208.297 247.29,208.297 "></polygon> <polygon style="fill:#172126;" points="360.09,156.197 394.79,156.197 394.79,104.097 360.09,104.097 "></polygon> <polygon style="fill:#38454F;" points="394.79,164.897 429.59,164.897 429.59,95.497 394.79,95.497 "></polygon> <g> <path style="fill:#172126;" d="M498.99,57.397l-58.2,21.8c-6.8,2.5-11.3,9-11.3,16.3v69.4c0,7.2,4.5,13.7,11.3,16.3l58.2,21.8 l-8.6-28.8c-11.6-37.9-11.6-50.2,0-88L498.99,57.397z"></path> <polygon style="fill:#172126;" points="30.39,112.797 56.39,112.797 56.39,95.497 30.39,95.497 "></polygon> <polygon style="fill:#172126;" points="30.39,147.497 73.79,147.497 73.79,130.197 30.39,130.197 "></polygon> <polygon style="fill:#172126;" points="30.39,182.197 91.09,182.197 91.09,164.897 30.39,164.897 "></polygon> </g> <path style="fill:#50508A;" d="M169.19,121.497h-17.4c-4.8,0-8.7-3.9-8.7-8.7v-17.3c0-4.8,3.9-8.7,8.7-8.7h17.4 c4.8,0,8.7,3.9,8.7,8.7v17.4C177.89,117.597,173.99,121.497,169.19,121.497"></path> <path style="fill:#283238;" d="M169.19,128.497h-17.4c-8.6,0-15.7-7-15.7-15.7v-17.3c0-8.6,7-15.7,15.7-15.7h17.4 c8.6,0,15.7,7,15.7,15.7v17.4C184.89,121.497,177.89,128.497,169.19,128.497z M151.89,93.797c-0.9,0-1.7,0.8-1.7,1.7v17.4 c0,0.9,0.8,1.7,1.7,1.7h17.4c0.9,0,1.7-0.8,1.7-1.7v-17.4c0-0.9-0.8-1.7-1.7-1.7H151.89z"></path> <path style="fill:#50508A;" d="M238.59,121.497h-17.4c-4.8,0-8.7-3.9-8.7-8.7v-17.3c0-4.8,3.9-8.7,8.7-8.7h17.4 c4.8,0,8.7,3.9,8.7,8.7v17.4C247.29,117.597,243.39,121.497,238.59,121.497"></path> <path style="fill:#283238;" d="M238.59,128.497h-17.4c-8.6,0-15.7-7-15.7-15.7v-17.3c0-8.6,7-15.7,15.7-15.7h17.4 c8.6,0,15.7,7,15.7,15.7v17.4C254.29,121.497,247.29,128.497,238.59,128.497z M221.29,93.797c-0.9,0-1.7,0.8-1.7,1.7v17.4 c0,0.9,0.8,1.7,1.7,1.7h17.4c0.9,0,1.7-0.8,1.7-1.7v-17.4c0-0.9-0.8-1.7-1.7-1.7H221.29z"></path> <path style="fill:#172126;" d="M273.39,208.297h-138.9v-34.7c0-9.6,7.8-17.4,17.4-17.4h104.1c9.6,0,17.4,7.8,17.4,17.4V208.297z"></path> </g></svg>