<svg height="64px" width="64px" version="1.1" id="Layer_1" xmlns="http://www.w3.org/2000/svg" xmlns:xlink="http://www.w3.org/1999/xlink" viewBox="-128 -128 768.00 768.00" xml:space="preserve" fill="#000000"><g id="SVGRepo_bgCarrier" stroke-width="0"></g><g id="SVGRepo_tracerCarrier" stroke-linecap="round" stroke-linejoin="round"></g><g id="SVGRepo_iconCarrier"> <g> <polygon style="fill:#E6E6E6;" points="302.852,42.327 0,42.327 131.675,469.672 434.527,469.672 "></polygon> <polygon style="fill:#E6E6E6;" points="244.63,161.707 148.879,161.707 143.349,143.752 244.63,143.752 "></polygon> <polygon style="fill:#E6E6E6;" points="156.336,185.911 258.995,185.911 258.995,203.867 161.867,203.867 "></polygon> <polygon style="fill:#E6E6E6;" points="284.492,101.58 284.492,119.535 135.879,119.535 130.349,101.58 "></polygon> </g> <path style="fill:#DD852C;" d="M427.185,221.884c-36.043,36.043-74.121,62.665-105.388,75.749l-23.486-23.486l-34.906-34.906 c13.084-31.267,39.706-69.345,75.749-105.388c53.771-53.759,112.091-86.594,145.513-84.727c8.128,0.443,14.795,2.945,19.548,7.697 C528.514,81.135,494.029,155.041,427.185,221.884z"></path> <path style="fill:#BF6D22;" d="M484.667,49.126c0,0-176.373,115.682-186.356,225.02l-34.906-34.906 c13.084-31.267,39.706-69.345,75.749-105.388C392.925,80.094,451.245,47.259,484.667,49.126z"></path> <g> <path style="fill:#808080;" d="M275.572,161.852c-2.571,0-4.848-1.848-5.302-4.469c-0.509-2.932,1.457-5.719,4.388-6.227 c27.12-4.696,51.219-22.419,64.466-47.408l8.365-15.783c11.642-21.965,36.754-34.268,59.71-29.255 c21.081,4.605,40.088,14.901,54.962,29.776l37.171,37.169c2.104,2.103,2.104,5.515,0,7.618c-2.102,2.103-5.515,2.103-7.617,0 l-37.171-37.169C441.13,82.692,423.963,73.4,404.9,69.237c-18.326-4.003-38.469,5.995-47.894,23.775l-8.365,15.783 c-14.793,27.911-41.765,47.715-72.146,52.978C276.186,161.826,275.877,161.851,275.572,161.852z"></path> <path style="fill:#808080;" d="M263.405,239.241l-9.278,24.016c-4.658,12.057-13.596,21.974-25.106,27.858l-20.217,10.333 l-4.232,46.554l18.624-18.625c-2.31-5.634-1.185-12.357,3.384-16.926c2.939-2.939,6.846-4.558,11.003-4.558 s8.064,1.618,11.003,4.558c6.068,6.068,6.068,15.94,0,22.008l0,0c-3.033,3.033-7.018,4.55-11.003,4.55 c-2.016,0-4.029-0.391-5.922-1.167l-18.624,18.625l46.554-4.233l10.333-20.217c5.882-11.51,15.8-20.448,27.858-25.106l24.016-9.278 L263.405,239.241z"></path> </g> <g> <polygon style="fill:#247396;" points="275.167,119.535 70.472,119.535 64.942,101.58 269.637,101.58 "></polygon> <polygon style="fill:#247396;" points="235.497,161.707 83.472,161.707 77.942,143.752 229.967,143.752 "></polygon> <polygon style="fill:#247396;" points="248.484,203.867 96.459,203.867 90.93,185.911 242.955,185.911 "></polygon> <polygon style="fill:#247396;" points="174.865,246.039 109.46,246.039 103.917,228.083 169.324,228.083 "></polygon> <path style="fill:#247396;" d="M189.514,360.891c-2.617,1.247-5.074,2.659-7.442,4.163c-2.371,1.501-4.6,3.151-6.769,4.862 c-0.455,0.359-0.887,0.743-1.332,1.112c-0.461-0.351-0.909-0.718-1.378-1.059c-2.235-1.632-4.539-3.184-6.966-4.6 c-2.43-1.411-4.944-2.729-7.607-3.876c-2.681-1.129-5.441-2.17-8.554-2.813c1.003,3.018,2.361,5.636,3.796,8.165 c1.452,2.511,3.055,4.853,4.743,7.101c1.69,2.243,3.503,4.35,5.384,6.378c1.878,2.033,3.862,3.947,5.916,5.781l5.042,4.503 l4.892-4.697c1.984-1.903,3.887-3.892,5.685-5.99c1.794-2.101,3.53-4.263,5.123-6.574c1.596-2.307,3.103-4.707,4.451-7.273 c1.33-2.584,2.58-5.253,3.455-8.309C194.863,358.521,192.147,359.663,189.514,360.891z"></path> </g> </g></svg>