<svg version="1.1" id="Layer_1" xmlns="http://www.w3.org/2000/svg" xmlns:xlink="http://www.w3.org/1999/xlink" viewBox="-128 -128 768.00 768.00" xml:space="preserve" width="64px" height="64px" fill="#000000"><g id="SVGRepo_bgCarrier" stroke-width="0"></g><g id="SVGRepo_tracerCarrier" stroke-linecap="round" stroke-linejoin="round"></g><g id="SVGRepo_iconCarrier"> <g> <path style="fill:#918FA9;" d="M256.002,164.019c-34.048,0-61.651,27.605-61.651,61.653h123.298 C317.649,191.624,290.049,164.019,256.002,164.019z"></path> <rect x="116.517" y="438.92" style="fill:#918FA9;" width="278.967" height="56.335"></rect> </g> <rect x="142.106" y="225.667" style="fill:#67658A;" width="227.788" height="213.253"></rect> <rect x="187.037" y="263.335" style="fill:#003A7F;" width="137.927" height="137.927"></rect> <path d="M368.92,27.193c11.618,0,21.071,9.453,21.071,21.071c0,5.77,4.679,10.449,10.449,10.449s10.449-4.679,10.449-10.449 c0-11.618,9.453-21.071,21.071-21.071c5.77,0,10.449-4.679,10.449-10.449s-4.679-10.449-10.449-10.449 c-12.55,0-23.823,5.544-31.52,14.304c-7.698-8.759-18.97-14.304-31.52-14.304c-5.77,0-10.449,4.679-10.449,10.449 S363.15,27.193,368.92,27.193z"></path> <path d="M97.349,143.648c0-5.77-4.679-10.449-10.449-10.449c-12.55,0-23.823,5.544-31.52,14.304 c-7.698-8.759-18.97-14.304-31.52-14.304c-5.77,0-10.449,4.679-10.449,10.449s4.679,10.449,10.449,10.449 c11.618,0,21.071,9.453,21.071,21.071c0,5.77,4.679,10.449,10.449,10.449s10.449-4.679,10.449-10.449 c0-11.618,9.453-21.071,21.071-21.071C92.67,154.097,97.349,149.419,97.349,143.648z"></path> <path d="M173.627,38.553c-12.55,0-23.823,5.544-31.52,14.304c-7.698-8.759-18.97-14.304-31.52-14.304 c-5.77,0-10.449,4.679-10.449,10.449s4.679,10.449,10.449,10.449c11.618,0,21.071,9.452,21.071,21.07 c0,5.77,4.679,10.449,10.449,10.449c5.77,0,10.449-4.679,10.449-10.449c0-11.618,9.453-21.07,21.071-21.07 c5.77,0,10.449-4.679,10.449-10.449S179.396,38.553,173.627,38.553z"></path> <path d="M102.926,317.622h-0.137c-5.77,0-10.449,4.679-10.449,10.449s4.679,10.449,10.449,10.449h0.137 c5.77,0,10.449-4.679,10.449-10.449S108.696,317.622,102.926,317.622z"></path> <path d="M68.985,317.623H10.449C4.678,317.623,0,322.302,0,328.072s4.678,10.449,10.449,10.449h58.536 c5.77,0,10.449-4.679,10.449-10.449S74.755,317.623,68.985,317.623z"></path> <path d="M501.551,132.675h-0.137c-5.77,0-10.449,4.679-10.449,10.449s4.679,10.449,10.449,10.449h0.137 c5.77,0,10.449-4.679,10.449-10.449S507.321,132.675,501.551,132.675z"></path> <path d="M467.611,132.676h-61.232c-5.77,0-10.449,4.679-10.449,10.449s4.679,10.449,10.449,10.449h61.232 c5.77,0,10.449-4.679,10.449-10.449S473.381,132.676,467.611,132.676z"></path> <path d="M424.007,168.202h-61.232c-5.77,0-10.449,4.679-10.449,10.449s4.679,10.449,10.449,10.449h61.232 c5.77,0,10.449-4.679,10.449-10.449S429.778,168.202,424.007,168.202z"></path> <path d="M324.963,252.884H187.037c-5.77,0-10.449,4.679-10.449,10.449V401.26c0,5.77,4.679,10.449,10.449,10.449h33.437 c5.77,0,10.449-4.679,10.449-10.449s-4.679-10.449-10.449-10.449h-22.988V273.782h117.029v117.029h-8.707 c-5.77,0-10.449,4.679-10.449,10.449s4.679,10.449,10.449,10.449h19.156c5.77,0,10.449-4.679,10.449-10.449V263.333 C335.412,257.563,330.733,252.884,324.963,252.884z"></path> <path d="M251.037,411.709h-0.175c-5.77,0-10.449-4.679-10.449-10.449s4.679-10.449,10.449-10.449h0.175 c5.77,0,10.449,4.679,10.449,10.449S256.807,411.709,251.037,411.709z"></path> <path d="M469.292,484.807h-63.361v-45.886c0-5.77-4.679-10.449-10.449-10.449h-15.14v-202.8c0-5.77-4.679-10.449-10.449-10.449 h-42.562c-4.58-31.409-29.476-56.306-60.883-60.887v-37.334h11.317c5.77,0,10.449-4.679,10.449-10.449s-4.679-10.449-10.449-10.449 h-11.317V80.521c0-5.77-4.679-10.449-10.449-10.449c-5.77,0-10.449,4.679-10.449,10.449v15.583h-11.317 c-5.77,0-10.449,4.679-10.449,10.449s4.679,10.449,10.449,10.449h11.317v37.335c-31.407,4.582-56.302,29.479-60.883,60.886h-42.562 c-5.77,0-10.449,4.679-10.449,10.449v202.8h-15.14c-5.77,0-10.449,4.679-10.449,10.449v45.886H42.974 c-5.77,0-10.449,4.679-10.449,10.449s4.679,10.449,10.449,10.449h426.318c5.77,0,10.449-4.679,10.449-10.449 S475.062,484.807,469.292,484.807z M256.002,174.468c24.652,0,45.29,17.515,50.127,40.755H205.872 C210.708,191.982,231.348,174.468,256.002,174.468z M152.555,236.121h206.89v192.351h-206.89V236.121z M385.033,484.807H126.967 V449.37h258.068v35.437H385.033z"></path> </g></svg>