<svg version="1.1" id="Layer_1" xmlns="http://www.w3.org/2000/svg" xmlns:xlink="http://www.w3.org/1999/xlink" viewBox="-122.88 -122.88 737.28 737.28" xml:space="preserve" width="64px" height="64px" fill="#000000"><g id="SVGRepo_bgCarrier" stroke-width="0"></g><g id="SVGRepo_tracerCarrier" stroke-linecap="round" stroke-linejoin="round"></g><g id="SVGRepo_iconCarrier"> <rect x="55.194" style="fill:#EBF0F3;" width="381.133" height="491.52"></rect> <g> <rect x="94.694" y="43.73" style="fill:#E1E6E9;" width="71.68" height="8.94"></rect> <rect x="94.694" y="75.09" style="fill:#E1E6E9;" width="101.55" height="8.934"></rect> <rect x="178.053" y="139.315" style="fill:#E1E6E9;" width="135.429" height="8.934"></rect> <rect x="91.433" y="186.368" style="fill:#E1E6E9;" width="308.685" height="8.934"></rect> <rect x="91.433" y="223.688" style="fill:#E1E6E9;" width="308.685" height="8.94"></rect> <rect x="91.433" y="261.023" style="fill:#E1E6E9;" width="308.685" height="8.934"></rect> <rect x="91.433" y="298.342" style="fill:#E1E6E9;" width="308.685" height="8.934"></rect> <rect x="91.433" y="335.667" style="fill:#E1E6E9;" width="148.116" height="8.934"></rect> </g> <path style="fill:#27A2DB;" d="M342.725,426.928c-1.85,0-3.578-1.152-4.215-2.994c-1.842-5.28-3.142-10.9-3.867-16.73 c-0.165-1.309-0.305-2.749-0.383-4.268c-5.935-0.68-11.852-1.746-17.725-3.194c-2.278-0.558-3.736-2.792-3.325-5.106 c0.402-2.312,2.513-3.997,4.853-3.674c5.768,0.594,11.607,1.048,17.524,1.362c1.58-4.39,4.712-8.055,8.684-10.141 c3.648-1.921,7.461-2.331,10.751-2.566c1.187-0.097,4.232-0.314,6.878,1.387c1.798-2.12,3.936-3.726,6.275-4.643 c4.677-1.806,9.504-0.619,12.601,3.142c0.131,0.166,0.262,0.332,0.393,0.506c1.196-0.55,2.295-0.55,3.098-0.366 c1.108,0.244,2.958,1.021,3.954,3.587c1.134,2.801,0.812,5.977-0.157,8.492c3.169-0.227,6.38-0.481,9.626-0.769 c2.2-0.148,4.626,1.58,4.844,4.058c0.218,2.452-1.597,4.626-4.058,4.844c-8.562,0.76-16.896,1.3-25.038,1.615 c-2.356,0.602-4.678,1.003-6.887,1.3c-0.191,2.391-0.515,4.765-0.951,7.069c-0.41,2.181-2.042,3.98-4.616,3.622 c-2.226-0.114-4.033-1.851-4.225-4.067c-0.156-1.806-0.331-3.736-0.436-5.733c-4.345,0.209-8.691,0.218-13.055,0 c0.061,0.881,0.157,1.71,0.244,2.452c0.646,5.192,1.798,10.193,3.43,14.872c0.82,2.329-0.411,4.878-2.74,5.69 C343.711,426.849,343.214,426.928,342.725,426.928z M345.396,392.726c3.752,0.096,7.566,0.07,11.354,0.148 c0.156-0.968,0.357-1.937,0.611-2.889c-0.157-0.959-0.314-1.369-0.411-1.544c0,0.069-0.366,0.025-1.273,0.095 c-2.618,0.184-5.132,0.445-7.253,1.554C347.255,390.71,346.216,391.617,345.396,392.726z M366.463,390.797 c0.061,0.646,0.114,1.3,0.157,1.955c1.816-0.044,3.64-0.104,5.472-0.174c0.62-0.166,1.23-0.358,1.841-0.558 c0.018-0.141,0.035-0.271,0.07-0.41c0.227-0.978,0.507-1.938,0.838-2.864c0.035-1.282-0.323-2.775-0.959-3.551 c-0.227-0.27-0.926-1.1-2.461-0.507C369.448,385.456,367.555,387.813,366.463,390.797z"></path> <polygon style="fill:#E56353;" points="145.672,393.744 137.51,395.932 136.429,391.9 114.073,439.68 129.843,436.839 148.066,397.891 "></polygon> <polygon style="fill:#CE412D;" points="149.897,401.063 148.066,397.891 129.843,436.839 137.767,450.766 161.155,400.778 157.216,396.838 "></polygon> <polygon style="fill:#E56353;" points="180.712,393.744 178.318,397.89 196.541,436.839 212.31,439.68 189.955,391.9 188.875,395.932 "></polygon> <polygon style="fill:#D15241;" points="176.485,401.063 169.167,396.838 165.229,400.778 188.617,450.766 196.541,436.839 178.318,397.89 "></polygon> <g> <path style="fill:#FCD462;" d="M208.581,357.423l5.975-5.975l-5.975-5.975l4.226-7.319l-7.318-4.226l2.186-8.162l-8.162-2.187 v-8.451h-8.451l-2.187-8.162l-8.163,2.186l-4.226-7.318l-7.318,4.226l-5.976-5.975l-5.975,5.975l-7.319-4.226l-4.226,7.318 l-8.162-2.186l-2.188,8.162h-8.45v8.451l-8.164,2.187l2.188,8.162l-7.318,4.226l4.225,7.319l-5.976,5.975l5.976,5.975l-4.225,7.319 l7.318,4.226l-2.188,8.163l8.164,2.187v8.451h8.45l1.107,4.131l1.081,4.031l8.162-2.187l2.395,4.146l1.831,3.173l7.319-4.226 l3.938,3.94l2.037,2.036l2.038-2.036l3.938-3.94l7.318,4.226l1.832-3.173l2.394-4.146l8.163,2.187l1.08-4.032l1.107-4.13h8.451 v-8.451l8.162-2.187l-2.186-8.163l7.318-4.226L208.581,357.423z M163.192,388.296c-20.317,0-36.846-16.529-36.846-36.848 c0-20.317,16.529-36.847,36.846-36.847c20.318,0,36.846,16.53,36.846,36.847C200.038,371.767,183.51,388.296,163.192,388.296z"></path> <circle style="fill:#FCD462;" cx="163.195" cy="351.437" r="31.365"></circle> </g> <path style="fill:#E56353;" d="M163.192,314.601c-20.317,0-36.846,16.53-36.846,36.847c0,20.319,16.529,36.848,36.846,36.848 c20.318,0,36.846-16.529,36.846-36.848C200.038,331.132,183.51,314.601,163.192,314.601z M163.192,382.816 c-17.296,0-31.367-14.071-31.367-31.367c0-17.297,14.071-31.368,31.367-31.368c17.298,0,31.368,14.071,31.368,31.368 C194.56,368.744,180.49,382.816,163.192,382.816z"></path> </g></svg>