<svg viewBox="-8 -8 48.00 48.00" enable-background="new 0 0 32 32" version="1.1" xml:space="preserve" xmlns="http://www.w3.org/2000/svg" xmlns:xlink="http://www.w3.org/1999/xlink" fill="#000000"><g id="SVGRepo_bgCarrier" stroke-width="0"></g><g id="SVGRepo_tracerCarrier" stroke-linecap="round" stroke-linejoin="round"></g><g id="SVGRepo_iconCarrier"> <g id="Files_Folder40"></g> <g id="Files_Folder39"></g> <g id="Files_Folder38"></g> <g id="Files_Folder37"></g> <g id="Files_Folder36"></g> <g id="Files_Folder35"></g> <g id="Files_Folder34"></g> <g id="Files_Folder33"></g> <g id="Files_Folder32"></g> <g id="Files_Folder31"></g> <g id="Files_Folder30"></g> <g id="Files_Folder29"></g> <g id="Files_Folder28"> <path d="M31,10v17c0,0.55-0.45,1-1,1H2c-0.55,0-1-0.45-1-1V5c0-0.55,0.45-1,1-1h11c0.35,0,0.68,0.18,0.86,0.49 L16.57,9H30C30.55,9,31,9.45,31,10z" fill="#FFC10A"></path> <path d="M17.4141,19l3.293-3.293c0.3906-0.3906,0.3906-1.0234,0-1.4141s-1.0234-0.3906-1.4141,0L16,17.5859 l-3.293-3.293c-0.3906-0.3906-1.0234-0.3906-1.4141,0s-0.3906,1.0234,0,1.4141L14.5859,19l-3.293,3.293 c-0.3906,0.3906-0.3906,1.0234,0,1.4141C11.4883,23.9023,11.7441,24,12,24s0.5117-0.0977,0.707-0.293L16,20.4141l3.293,3.293 C19.4883,23.9023,19.7441,24,20,24s0.5117-0.0977,0.707-0.293c0.3906-0.3906,0.3906-1.0234,0-1.4141L17.4141,19z" fill="#aa0303"></path> </g> <g id="Files_Folder27"></g> <g id="Files_Folder26"></g> <g id="Files_Folder25"></g> <g id="Files_Folder24"></g> <g id="Files_Folder23"></g> <g id="Files_Folder22"></g> <g id="Files_Folder21"></g> <g id="Files_Folder20"></g> <g id="Files_Folder19"></g> <g id="Files_Folder18"></g> <g id="Files_Folder17"></g> <g id="Files_Folder16"></g> <g id="Files_Folder15"></g> <g id="Files_Folder14"></g> <g id="Files_Folder13"></g> <g id="Files_Folder12"></g> <g id="Files_Folder11"></g> <g id="Files_Folder10"></g> <g id="Files_Folder09"></g> <g id="Files_Folder08"></g> <g id="Files_Folder07"></g> <g id="Files_Folder06"></g> <g id="Files_Folder05"></g> <g id="Files_Folder04"></g> <g id="Files_Folder03"></g> <g id="Files_Folder02"></g> <g id="Files_Folder01"></g> </g></svg>