<svg height="64px" width="64px" version="1.1" id="Layer_1" xmlns="http://www.w3.org/2000/svg" xmlns:xlink="http://www.w3.org/1999/xlink" viewBox="-153.6 -153.6 768 768" xml:space="preserve" fill="#000000">
  <g id="SVGRepo_bgCarrier" stroke-width="0"></g>
  <g id="SVGRepo_tracerCarrier" stroke-linecap="round" stroke-linejoin="round"></g>
  <g id="SVGRepo_iconCarrier">
    <path style="fill:#BDBCBC;" d="M152.851,36.877v116.509c0,4.427-3.589,8.017-8.017,8.017H59.323c-4.427,0-8.017-3.589-8.017-8.017 V36.877H152.851z"></path>
    <path style="fill:#A7A6A6;" d="M80.701,36.877v124.526H59.323c-4.427,0-8.017-3.589-8.017-8.017V36.877H80.701z"></path>
    <path style="fill:#E9E9E9;" d="M161.937,0H42.221c-4.427,0-8.017,3.589-8.017,8.017v34.205c0,4.427,3.589,8.017,8.017,8.017h119.716 c4.427,0,8.017-3.589,8.017-8.017V8.017C169.954,3.59,166.364,0,161.937,0z"></path>
    <path style="fill:#D3D2D2;" d="M508.827,189.755L260.845,1.63c-2.865-2.173-6.826-2.173-9.689,0L3.172,189.755 c-2.743,2.08-3.851,5.68-2.753,8.942c1.098,3.263,4.156,5.461,7.598,5.461h39.015v299.824c0,4.427,3.589,8.017,8.017,8.017h401.903 c4.427,0,8.017-3.589,8.017-8.017V204.158h39.015c3.443,0,6.501-2.198,7.598-5.461C512.679,195.435,511.57,191.835,508.827,189.755z "></path>
    <path style="fill:#D3D2D2;" d="M3.172,189.755c-2.743,2.08-3.851,5.68-2.753,8.942c1.098,3.263,4.156,5.461,7.598,5.461h39.015 v299.824c0,4.427,3.589,8.017,8.017,8.017h25.653v-381.06L3.172,189.755z"></path>
    <path style="fill:#7B7979;" d="M352.734,406.179c-2.051,0-4.103-0.782-5.668-2.348l-72.685-72.685 c-3.131-3.131-3.131-8.207,0-11.337c3.131-3.131,8.207-3.131,11.337,0l72.685,72.685c3.131,3.131,3.131,8.207,0,11.337 C356.838,405.397,354.786,406.179,352.734,406.179z"></path>
    <path style="fill:#A7A6A6;" d="M429.598,441.015l-59.858-59.858c-4.543-4.543-10.582-7.045-17.006-7.045 c-6.424,0-12.464,2.502-17.006,7.045c-9.377,9.376-9.377,24.635,0,34.011l59.858,59.858c4.543,4.543,10.582,7.045,17.006,7.045 c6.424,0,12.464-2.502,17.006-7.044C438.975,465.65,438.975,450.391,429.598,441.015z"></path>
    <path style="fill:#918F90;" d="M330.327,389.472c-3.325,8.611-1.534,18.76,5.402,25.696l59.858,59.858 c4.543,4.543,10.582,7.045,17.006,7.045c3.026,0,5.958-0.574,8.696-1.635L330.327,389.472z"></path>
    <path style="fill:#777;" d="M203.089,129.336c-70.432,0-127.733,57.3-127.733,127.733s57.301,127.732,127.733,127.732 s127.732-57.3,127.732-127.732S273.522,129.336,203.089,129.336z"></path>
    <path style="fill:#777;" d="M203.089,149.645c-59.234,0-107.424,48.19-107.424,107.424s48.19,107.424,107.424,107.424 s107.424-48.19,107.424-107.424S262.323,149.645,203.089,149.645z"></path>
    <path style="fill:#D3D2D2;" d="M203.089,163.541c-51.572,0-93.528,41.956-93.528,93.528s41.957,93.528,93.528,93.528 s93.528-41.956,93.528-93.528S254.661,163.541,203.089,163.541z"></path>
    <path style="fill:#F4F4F4;" d="M270.189,253.629c-10.505-22.109-39.351-38.782-67.1-38.782s-56.595,16.673-67.099,38.78 c-1.034,2.177-1.034,4.704,0,6.882c10.505,22.109,39.35,38.78,67.099,38.78s56.595-16.673,67.099-38.78 C271.223,258.332,271.223,255.805,270.189,253.629z"></path>
    <path style="fill:#D3D2D2;" d="M203.089,223.399c-18.566,0-33.67,15.105-33.67,33.67s15.104,33.67,33.67,33.67 s33.67-15.105,33.67-33.67S221.655,223.399,203.089,223.399z"></path>
    <path style="fill:#D3D2D2;" d="M216.362,277.467c-18.566,0-33.67-15.104-33.67-33.67c0-5.878,1.518-11.407,4.176-16.221 c-10.392,5.739-17.449,16.806-17.449,29.494c0,18.566,15.104,33.67,33.67,33.67c12.688,0,23.755-7.057,29.494-17.449 C227.769,275.949,222.24,277.467,216.362,277.467z"></path>
    <circle style="fill:#D3D2D2;" cx="211.694" cy="241.751" r="12"></circle>
  </g>
</svg>
