<svg height="64px" width="64px" version="1.1" id="Layer_1" xmlns="http://www.w3.org/2000/svg" xmlns:xlink="http://www.w3.org/1999/xlink" viewBox="-128 -128 768.00 768.00" xml:space="preserve" fill="#000000"><g id="SVGRepo_bgCarrier" stroke-width="0"></g><g id="SVGRepo_tracerCarrier" stroke-linecap="round" stroke-linejoin="round"></g><g id="SVGRepo_iconCarrier"> <path style="fill:#D7EBFF;" d="M134.816,292.492l70.917-70.695c0.111-0.111,0.111-0.223,0.223-0.334 c1.113-1.336,2.227-2.561,3.452-3.785l83.052-82.83c-41.191-14.696-88.842-5.455-121.794,27.499 c-4.136,4.136-8.722,8.087-12.47,12.58C128.582,207.77,120.788,253.193,134.816,292.492z"></path> <path style="fill:#C9D2D9;" d="M34.397,463.941l13.694,13.694c44.421,44.755,118.566,46.759,165.324,0.334 c142.249-142.502,121.721-121.907,136.268-136.602c33.066-33.065,42.194-80.826,27.5-122.018 c-5.678-15.809-14.807-30.616-27.5-43.307l-13.694-13.694c-12.802-12.803-27.721-21.932-43.529-27.499l-83.052,82.83 c-1.226,1.225-2.339,2.449-3.452,3.785l12.136-12.024c19.037-19.371,50.765-19.705,70.805,0l13.694,13.694 c19.371,19.371,20.039,51.101,0,70.806l-9.796,9.908c-0.334,0.334-0.669,0.779-1.114,1.002l-72.142,72.365l-53.551,53.661 c-19.371,19.371-51.098,19.371-70.805-0.334c-8.214-8.624-5.274-5.605-13.694-14.028c-19.371-19.037-19.705-51.101,0-70.806 l53.326-53.216c-14.028-39.3-6.233-84.722,23.379-117.565L34.396,298.616C-11.361,344.372-11.361,418.518,34.397,463.941z"></path> <path style="fill:#B7C4CC;" d="M213.414,477.969c-46.759,46.425-120.904,44.421-165.324-0.334l-6.904-6.904l47.253-47.252 c1.336,1.368,2.662,2.778,6.743,7.062c19.705,19.705,51.433,19.705,70.805,0.334l53.551-53.661l72.142-72.365 c0.445-0.223,0.78-0.668,1.114-1.002l9.796-9.908c20.039-19.705,19.371-51.435,0-70.806l-6.901-6.902l47.093-47.093l6.901,6.901 c12.693,12.692,21.822,27.499,27.5,43.307c14.694,41.192,5.566,88.953-27.5,122.018 C335.135,356.062,355.661,335.467,213.414,477.969z"></path> <path style="fill:#D7EBFF;" d="M162.315,335.911l13.694,13.694c12.579,12.692,27.499,21.932,43.529,27.61l72.142-72.365 c-19.483,17.368-49.541,16.7-68.578-2.338c-8.214-8.624-5.274-5.605-13.694-14.028c-18.037-17.702-19.594-46.87-3.675-66.687 c0.111-0.111,0.111-0.223,0.223-0.334c1.113-1.336,2.227-2.561,3.452-3.785l83.052-82.83l53.551-53.439 c19.037-19.371,50.765-19.705,70.805,0l13.694,13.694c19.371,19.371,20.039,51.101,0,70.806l-53.326,53.439 c14.694,41.192,5.566,88.953-27.5,122.018c0,0,126.51-126.617,127.92-128.03c45.757-45.757,45.757-119.569,0-165.325 c-9.352-9.351-2.788-2.787-13.695-13.694c-45.756-45.757-119.569-45.757-165.324,0l-127.918,128.03 c-4.164,4.108-8.721,8.085-12.47,12.58c-29.613,32.842-37.407,78.265-23.379,117.565 C140.382,308.301,149.511,323.22,162.315,335.911z"></path> <g> <path style="fill:#BDDEFF;" d="M349.682,341.366c33.066-33.065,42.194-80.826,27.5-122.018l53.326-53.439 c20.039-19.705,19.371-51.435,0-70.806l-6.847-6.847l47.094-47.093c1.325,1.325,1.287,1.286,6.847,6.847 c45.757,45.757,45.757,119.57,0,165.325C476.193,214.749,349.682,341.366,349.682,341.366z"></path> <path style="fill:#BDDEFF;" d="M176.009,349.605l-6.847-6.848l47.25-47.251c1.318,1.352,2.661,2.778,6.689,7.006 c19.037,19.037,49.096,19.705,68.578,2.338l-72.142,72.365C203.507,371.537,188.588,362.296,176.009,349.605z"></path> </g> </g></svg>