<svg version="1.1" id="Layer_1" xmlns="http://www.w3.org/2000/svg" xmlns:xlink="http://www.w3.org/1999/xlink" viewBox="-128 -128 768.00 768.00" xml:space="preserve" width="64px" height="64px" fill="#000000"><g id="SVGRepo_bgCarrier" stroke-width="0"></g><g id="SVGRepo_tracerCarrier" stroke-linecap="round" stroke-linejoin="round"></g><g id="SVGRepo_iconCarrier"> <polygon style="fill:#FFE08F;" points="478.242,0 444.484,222.242 478.242,444.484 512,444.484 512,0 "></polygon> <rect x="67.516" style="fill:#FFF3D4;" width="410.725" height="444.484"></rect> <rect x="67.516" y="33.758" style="fill:#D5AEA4;" width="410.725" height="376.967"></rect> <path style="fill:#F5AC51;" d="M78.769,67.516l22.505,435.428c20.175-11.675,33.758-33.476,33.758-58.461 c0-37.288,0-376.967,0-376.967H78.769z"></path> <path style="fill:#FFD159;" d="M0,67.516c0,0,0,339.679,0,376.967S30.228,512,67.516,512c12.302,0,23.825-3.306,33.758-9.055V67.516 H0z"></path> <circle style="fill:#FFE08F;" cx="67.516" cy="67.516" r="67.516"></circle> <g> <circle style="fill:#F5AC51;" cx="67.516" cy="67.516" r="33.758"></circle> <circle style="fill:#F5AC51;" cx="84.396" cy="402.286" r="8.44"></circle> <circle style="fill:#F5AC51;" cx="50.637" cy="436.044" r="8.44"></circle> </g> <g> <path style="fill:#C08577;" d="M399.473,281.319l-11.253,33.758h47.824v2.813c0,4.662,3.778,8.44,8.44,8.44 c4.662,0,8.44-3.778,8.44-8.44v-36.571H399.473z"></path> <path style="fill:#C08577;" d="M410.725,256c-4.662,0-8.44-3.778-8.44-8.44v-11.253c0-4.662,3.778-8.44,8.44-8.44 s8.44,3.778,8.44,8.44v11.253C419.165,252.222,415.387,256,410.725,256z"></path> </g> <path style="fill:#FFFFFF;" d="M241.934,360.088h-73.143v16.879h90.022C258.813,367.645,251.256,360.088,241.934,360.088z"></path> <g> <path style="fill:#C08577;" d="M315.077,292.571c-4.662,0-8.44-3.778-8.44-8.44v-11.253c0-4.662,3.778-8.44,8.44-8.44 s8.44,3.778,8.44,8.44v11.253C323.517,288.794,319.739,292.571,315.077,292.571z"></path> <path style="fill:#C08577;" d="M196.923,109.714c-4.661,0-8.44-3.778-8.44-8.44V90.022c0-4.662,3.779-8.44,8.44-8.44 c4.661,0,8.44,3.778,8.44,8.44v11.253C205.363,105.937,201.584,109.714,196.923,109.714z"></path> <path style="fill:#C08577;" d="M444.484,70.33H272.879c-4.662,0-8.44,3.778-8.44,8.44s3.778,8.44,8.44,8.44h8.44v30.945h-11.253 c-9.317,0-16.879,7.562-16.879,16.879h-33.758v25.319h-14.066c-4.661,0-8.44,3.778-8.44,8.44s3.779,8.44,8.44,8.44h84.396v25.319 h-81.582c-12.434,0-22.505,10.071-22.505,22.506c0,12.434,10.071,22.505,22.505,22.505h11.253v39.385 c0,12.378,10.127,22.505,22.505,22.505h39.385v-90.022h16.879c4.662,0,8.44-3.778,8.44-8.44v-33.758h16.879v39.385 c0,4.662,3.778,8.44,8.44,8.44s8.44-3.778,8.44-8.44v-19.692h38.586c9.329,0,16.879-7.562,16.879-16.879h28.931v33.758 c0,4.662,3.778,8.44,8.44,8.44c4.662,0,8.44-3.778,8.44-8.44V87.209h2.813c4.662,0,8.44-3.778,8.44-8.44 S449.146,70.33,444.484,70.33z"></path> </g> </g></svg>