<svg height="64px" width="64px" version="1.1" id="Layer_1" xmlns="http://www.w3.org/2000/svg" xmlns:xlink="http://www.w3.org/1999/xlink" viewBox="-128 -128 767.99 767.99" xml:space="preserve" fill="#000000"><g id="SVGRepo_bgCarrier" stroke-width="0"></g><g id="SVGRepo_tracerCarrier" stroke-linecap="round" stroke-linejoin="round"></g><g id="SVGRepo_iconCarrier"> <path style="fill:#CCD1D9;" d="M481.694,165.338c-0.812,0-1.641,0.062-2.484,0.188l-223.215,21.093l-223.23-21.094 c-0.828-0.125-1.656-0.188-2.469-0.188C7.93,165.337,0,205.555,0,239.999c0,34.438,7.93,74.655,30.296,74.655 c0.812,0,1.648-0.062,2.477-0.188l222.543-21.094l223.91,21.109c0.828,0.109,1.656,0.172,2.469,0.172 c22.359,0,30.296-40.218,30.296-74.655C511.99,205.556,504.054,165.338,481.694,165.338z"></path> <path style="fill:#AAB2BC;" d="M504.679,188.135c-5.875-9.531-12.719-12.133-18.438-12.133c-0.812,0-1.672,0.062-2.516,0.188 l-227.73,21.1l-227.73-21.101c-0.844-0.125-1.695-0.188-2.523-0.188c-5.711,0-12.554,2.602-18.421,12.133 c-3.844,10.796-6.008,24.271-6.875,37.803c1.828,1.922,4.312,3.125,7,3.352l247.597,21.336c0.32,0.031,0.633,0.039,0.953,0.039 s0.633-0.008,0.953-0.039l247.605-21.336c2.688-0.227,5.156-1.43,7-3.352C510.679,212.406,508.522,198.931,504.679,188.135z"></path> <path style="fill:#E6E9ED;" d="M509.21,206.142c-6-33.726-18.266-40.804-27.516-40.804c-0.812,0-1.641,0.062-2.484,0.188 l-223.215,21.093l-223.23-21.094c-0.828-0.125-1.656-0.188-2.469-0.188c-9.25,0-21.522,7.078-27.507,40.804 c-0.523,2.945,0.219,5.968,2.039,8.343s4.547,3.883,7.531,4.141l242.698,21.336c0.312,0.023,0.625,0.039,0.938,0.039 c0.313,0,0.625-0.016,0.93-0.039l242.707-21.336c2.984-0.258,5.703-1.766,7.531-4.141S509.725,209.087,509.21,206.142z"></path> <polygon style="fill:#ED5564;" points="224.019,268.242 223.996,346.654 255.995,325.343 287.995,346.654 287.995,268.219 "></polygon> <path style="fill:#F6BB42;" d="M298.651,240c0,23.562-19.094,42.656-42.656,42.656S213.332,263.562,213.332,240 s19.102-42.663,42.663-42.663C279.557,197.337,298.651,216.437,298.651,240z"></path> <g> <path style="fill:#FFCE54;" d="M255.995,293.343c-29.405,0-53.335-23.937-53.335-53.343s23.93-53.334,53.335-53.334 c29.406,0,53.344,23.928,53.344,53.334S285.401,293.343,255.995,293.343z M255.995,208.001c-17.647,0-31.999,14.351-31.999,31.999 s14.352,32,31.999,32c17.656,0,32-14.352,32-32S273.651,208.001,255.995,208.001z"></path> <circle style="fill:#FFCE54;" cx="255.995" cy="239.996" r="10.664"></circle> </g> </g></svg>