<svg height="64px" width="64px" version="1.1" id="Layer_1" xmlns="http://www.w3.org/2000/svg" xmlns:xlink="http://www.w3.org/1999/xlink" viewBox="-125.87 -125.87 755.21 755.21" xml:space="preserve" fill="#000000"><g id="SVGRepo_bgCarrier" stroke-width="0"></g><g id="SVGRepo_tracerCarrier" stroke-linecap="round" stroke-linejoin="round"></g><g id="SVGRepo_iconCarrier"> <g transform="translate(5 1)"> <path style="fill:#FF7474;" d="M67.533,54.467V498.2H33.4V20.333c0-9.387,7.68-17.067,17.067-17.067s17.067,7.68,17.067,17.067 V54.467z"></path> <path style="fill:#ECF4F7;" d="M460.067,139.8v170.667c0,18.773-15.36,34.133-34.133,34.133H152.867 c-18.773,0-34.133-15.36-34.133-34.133V139.8c0-18.773,15.36-34.133,34.133-34.133h17.067h238.933h17.067 C444.707,105.667,460.067,121.027,460.067,139.8L460.067,139.8z"></path> <polygon style="fill:#FFD0A1;" points="229.667,276.333 187,276.333 187,208.067 182.733,203.8 229.667,156.867 276.6,203.8 272.333,208.067 272.333,276.333 "></polygon> </g> <path style="fill:#51565F;" d="M499.2,503.467H362.667c-2.56,0-4.267-1.707-4.267-4.267c0-2.56,1.707-4.267,4.267-4.267H499.2 c2.56,0,4.267,1.707,4.267,4.267C503.467,501.76,501.76,503.467,499.2,503.467z M328.533,503.467h-17.067 c-2.56,0-4.267-1.707-4.267-4.267c0-2.56,1.707-4.267,4.267-4.267h17.067c2.56,0,4.267,1.707,4.267,4.267 C332.8,501.76,331.093,503.467,328.533,503.467z M260.267,503.467h-85.333c-2.56,0-4.267-1.707-4.267-4.267 c0-2.56,1.707-4.267,4.267-4.267h85.333c2.56,0,4.267,1.707,4.267,4.267C264.533,501.76,262.827,503.467,260.267,503.467z M123.733,503.467H4.267C1.707,503.467,0,501.76,0,499.2c0-2.56,1.707-4.267,4.267-4.267h29.867v-473.6 C34.133,9.387,43.52,0,55.467,0S76.8,9.387,76.8,21.333V51.2h422.4c2.56,0,4.267,1.707,4.267,4.267c0,2.56-1.707,4.267-4.267,4.267 h-81.067V102.4h12.8c21.333,0,38.4,17.067,38.4,38.4v170.667c0,21.333-17.067,38.4-38.4,38.4H157.867 c-21.333,0-38.4-17.067-38.4-38.4V140.8c0-21.333,17.067-38.4,38.4-38.4h12.8V59.733H72.533c-2.56,0-4.267-1.707-4.267-4.267V21.333 c0-6.827-5.973-12.8-12.8-12.8s-12.8,5.973-12.8,12.8v473.6h25.6V89.6c0-2.56,1.707-4.267,4.267-4.267 c2.56,0,4.267,1.707,4.267,4.267v405.333h46.933c2.56,0,4.267,1.707,4.267,4.267C128,501.76,126.293,503.467,123.733,503.467z M157.867,110.933c-16.213,0-29.867,13.653-29.867,29.867v170.667c0,16.213,13.653,29.867,29.867,29.867h273.067 c16.213,0,29.867-13.653,29.867-29.867V140.8c0-16.213-13.653-29.867-29.867-29.867h-17.067c-2.56,0-4.267-1.707-4.267-4.267V59.733 H179.2v46.933c0,2.56-1.707,4.267-4.267,4.267H157.867z M396.8,281.6h-68.267c-2.56,0-4.267-1.707-4.267-4.267 s1.707-4.267,4.267-4.267H396.8c2.56,0,4.267,1.707,4.267,4.267S399.36,281.6,396.8,281.6z M277.333,281.6H192 c-2.56,0-4.267-1.707-4.267-4.267v-66.56l-9.387,9.387c-1.707,1.707-4.267,1.707-5.973,0c-1.707-1.707-1.707-4.267,0-5.973 l59.733-59.733c1.707-1.707,4.267-1.707,5.973,0l59.733,59.733c1.707,1.707,1.707,4.267,0,5.973s-4.267,1.707-5.973,0l-9.387-9.387 v66.56C281.6,279.893,279.893,281.6,277.333,281.6z M238.933,273.067h34.133v-64c0-1.707,0.853-3.413,2.56-4.267l-40.96-40.96 l-40.96,40.96c1.707,0.853,2.56,2.56,2.56,4.267v64H230.4V243.2c0-2.56,1.707-4.267,4.267-4.267c2.56,0,4.267,1.707,4.267,4.267 V273.067z M413.867,230.4h-85.333c-2.56,0-4.267-1.707-4.267-4.267s1.707-4.267,4.267-4.267h85.333c2.56,0,4.267,1.707,4.267,4.267 S416.427,230.4,413.867,230.4z M379.733,179.2h-51.2c-2.56,0-4.267-1.707-4.267-4.267c0-2.56,1.707-4.267,4.267-4.267h51.2 c2.56,0,4.267,1.707,4.267,4.267C384,177.493,382.293,179.2,379.733,179.2z M379.733,110.933H209.067 c-2.56,0-4.267-1.707-4.267-4.267s1.707-4.267,4.267-4.267h170.667c2.56,0,4.267,1.707,4.267,4.267S382.293,110.933,379.733,110.933 z"></path> </g></svg>